name rise34.3697peak60.0498fall86.3158.mot
datacolumns 19
datarows 20
range 4.32831600000000 4.35998200000000
endheader
time	ground_force1_vx	ground_force1_vy	ground_force1_vz	ground_force1_px	ground_force1_py	ground_force1_pz	ground_force2_vx	ground_force2_vy	ground_force2_vz	ground_force2_px	ground_force2_py	ground_force2_pz	ground_torque1_x	ground_torque1_y	ground_torque1_z	ground_torque2_x	ground_torque2_y	ground_torque2_z	
4.32831600000000	-10.40412300000000	46.51942000000000	-9.40837400000000	0.40509700000000	0.00000000000000	0.10334900000000	-45.33847700000000	801.42885899999999	-47.65477800000000	0.22390600000000	0.00000000000000	-0.07252000000000	0.00000000000000	-7.84639000000000	0.00000000000000	0.00000000000000	-26.29147900000000	0.00000000000000	
4.32998300000000	-11.19759300000000	53.18035800000000	-10.36287100000000	0.40854400000000	0.00000000000000	0.10418900000000	-45.72016600000000	798.24204099999997	-47.19931300000000	0.22294200000000	0.00000000000000	-0.07239800000000	0.00000000000000	-8.70525800000000	0.00000000000000	0.00000000000000	-26.04825600000000	0.00000000000000	
4.33166100000000	-11.80025000000000	59.77742500000000	-11.20113500000000	0.41182100000000	0.00000000000000	0.10496200000000	-46.11409800000000	794.95725500000003	-46.72530600000000	0.22197500000000	0.00000000000000	-0.07227400000000	0.00000000000000	-9.48131500000000	0.00000000000000	0.00000000000000	-25.80233400000000	0.00000000000000	
4.33331700000000	-12.19698700000000	66.24466900000000	-11.90810900000000	0.41494700000000	0.00000000000000	0.10567600000000	-46.52061200000000	791.57499800000005	-46.23316700000000	0.22100600000000	0.00000000000000	-0.07214700000000	0.00000000000000	-10.16144100000000	0.00000000000000	0.00000000000000	-25.55405400000000	0.00000000000000	
4.33498000000000	-12.38273000000000	72.54164100000000	-12.47621800000000	0.41793600000000	0.00000000000000	0.10633800000000	-46.93997600000000	788.09560499999998	-45.72332900000000	0.22003600000000	0.00000000000000	-0.07201700000000	0.00000000000000	-10.73852800000000	0.00000000000000	0.00000000000000	-25.30374400000000	0.00000000000000	
4.33664700000000	-12.36151300000000	78.65283300000000	-12.90485800000000	0.42080100000000	0.00000000000000	0.10695600000000	-47.37238300000000	784.51924199999996	-45.19624700000000	0.21906400000000	0.00000000000000	-0.07188500000000	0.00000000000000	-11.21115300000000	0.00000000000000	0.00000000000000	-25.05172800000000	0.00000000000000	
4.33831900000000	-12.14497300000000	84.58515100000000	-13.19940500000000	0.42355300000000	0.00000000000000	0.10753400000000	-47.81795000000000	780.84590400000002	-44.65239500000000	0.21809200000000	0.00000000000000	-0.07175100000000	0.00000000000000	-11.58283800000000	0.00000000000000	0.00000000000000	-24.79831600000000	0.00000000000000	
4.33997900000000	-11.75047700000000	90.36398100000000	-13.36990300000000	0.42620300000000	0.00000000000000	0.10807700000000	-48.27671200000000	777.07541900000001	-44.09226400000000	0.21711900000000	0.00000000000000	-0.07161400000000	0.00000000000000	-11.86102600000000	0.00000000000000	0.00000000000000	-24.54380900000000	0.00000000000000	
4.34164800000000	-11.19910500000000	96.02841300000000	-13.42959600000000	0.42875700000000	0.00000000000000	0.10858800000000	-48.74862200000000	773.20744000000002	-43.51636700000000	0.21614600000000	0.00000000000000	-0.07147500000000	0.00000000000000	-12.05591300000000	0.00000000000000	0.00000000000000	-24.28849500000000	0.00000000000000	
4.34331500000000	-10.51367700000000	101.62617299999999	-13.39346100000000	0.43122600000000	0.00000000000000	0.10907100000000	-49.23354700000000	769.24145399999998	-42.92523200000000	0.21517400000000	0.00000000000000	-0.07133400000000	0.00000000000000	-12.17924900000000	0.00000000000000	0.00000000000000	-24.03265100000000	0.00000000000000	
4.34498200000000	-9.71698100000000	107.20871200000001	-13.27685500000000	0.43361400000000	0.00000000000000	0.10952700000000	-49.73126400000000	765.17678000000001	-42.31940500000000	0.21420400000000	0.00000000000000	-0.07119100000000	0.00000000000000	-12.24322400000000	0.00000000000000	0.00000000000000	-23.77653700000000	0.00000000000000	
4.34665200000000	-8.83030400000000	112.82682800000001	-13.09435900000000	0.43592800000000	0.00000000000000	0.10996000000000	-50.24146100000000	761.01257399999997	-41.69945100000000	0.21323600000000	0.00000000000000	-0.07104600000000	0.00000000000000	-12.25950300000000	0.00000000000000	0.00000000000000	-23.52040000000000	0.00000000000000	
4.34831500000000	-7.87232800000000	118.52707400000000	-12.85889100000000	0.43817300000000	0.00000000000000	0.11037200000000	-50.76373300000000	756.74783200000002	-41.06594600000000	0.21227000000000	0.00000000000000	-0.07090000000000	0.00000000000000	-12.23845800000000	0.00000000000000	0.00000000000000	-23.26447100000000	0.00000000000000	
4.34998800000000	-6.85842500000000	124.34908200000000	-12.58109300000000	0.44035300000000	0.00000000000000	0.11076400000000	-51.29758300000000	752.38140199999998	-40.41948500000000	0.21130800000000	0.00000000000000	-0.07075100000000	0.00000000000000	-12.18864500000000	0.00000000000000	0.00000000000000	-23.00896500000000	0.00000000000000	
4.35165400000000	-5.80031100000000	130.32384900000000	-12.26900400000000	0.44247400000000	0.00000000000000	0.11113800000000	-51.84241600000000	747.91198399999996	-39.76067500000000	0.21034900000000	0.00000000000000	-0.07060100000000	0.00000000000000	-12.11649600000000	0.00000000000000	0.00000000000000	-22.75407900000000	0.00000000000000	
4.35331600000000	-4.70604900000000	136.47295199999999	-11.92798700000000	0.44453800000000	0.00000000000000	0.11149500000000	-52.39754300000000	743.33814199999995	-39.09013600000000	0.20939600000000	0.00000000000000	-0.07045000000000	0.00000000000000	-12.02622700000000	0.00000000000000	0.00000000000000	-22.49999300000000	0.00000000000000	
4.35498700000000	-3.58031400000000	142.80856499999999	-11.56086700000000	0.44654900000000	0.00000000000000	0.11183600000000	-52.96217800000000	738.65831600000001	-38.40850400000000	0.20844900000000	0.00000000000000	-0.07029700000000	0.00000000000000	-11.91993600000000	0.00000000000000	0.00000000000000	-22.24686900000000	0.00000000000000	
4.35665400000000	-2.42486600000000	149.33414700000000	-11.16823600000000	0.44851000000000	0.00000000000000	0.11216200000000	-53.53543700000000	733.87082599999997	-37.71642200000000	0.20750800000000	0.00000000000000	-0.07014200000000	0.00000000000000	-11.79783200000000	0.00000000000000	0.00000000000000	-21.99485000000000	0.00000000000000	
4.35831700000000	-1.23915600000000	156.04561300000000	-10.74887500000000	0.45042300000000	0.00000000000000	0.11247500000000	-54.11634300000000	728.97389199999998	-37.01454800000000	0.20657400000000	0.00000000000000	-0.06998600000000	0.00000000000000	-11.65857000000000	0.00000000000000	0.00000000000000	-21.74405900000000	0.00000000000000	
4.35998200000000	-0.02098500000000	162.93281899999999	-10.30023000000000	0.45229000000000	0.00000000000000	0.11277400000000	-54.70381800000000	723.96564100000001	-36.30354700000000	0.20564800000000	0.00000000000000	-0.06982900000000	0.00000000000000	-11.49964100000000	0.00000000000000	0.00000000000000	-21.49460100000000	0.00000000000000	
